<svg width="273" height="60" viewBox="0 0 273 60" xmlns="http://www.w3.org/2000/svg">
    <path
        d="M35.3937 3.08625L43.9518 11.3332L39.9595 16.9998L35.3937 11.9999V13.7313V24.3763V45.6664H26.8682L5.9743 11.7576H5.74824L5.87742 13.6342C6.15729 17.0855 6.29723 20.3858 6.29723 23.5351V60H0V3.08625H8.4286L29.2579 36.8333H29.4194C29.161 31.2897 29.0319 27.4825 29.0319 25.4117V14.249V11.9999L24.3231 16.9998L20.9962 11.3332L29.0319 3.08625L32.2128 0L35.3937 3.08625Z"/>
    <path
        d="M75.8964 45.6664H70.5034L69.5346 41.4602H69.2116C68.2428 42.9701 66.8757 44.1457 65.1104 44.9869C63.3665 45.8282 61.3751 46.2488 59.1361 46.2488C55.2393 46.2488 52.3329 45.2781 50.4168 43.3368C48.5008 41.3954 47.5427 38.4511 47.5427 34.5037V13.4724H54.4212V33.3065C54.4212 35.8087 54.9272 37.6745 55.939 38.9041C56.9724 40.112 58.5548 40.716 60.6862 40.716C63.571 40.716 65.6701 39.8639 66.9834 38.1599C68.3397 36.4342 69.0179 33.5546 69.0179 29.5209V13.4724H75.8964V45.6664Z"
    />
    <path
        d="M95.0437 35.895C95.0437 37.4912 95.4419 38.6991 96.2385 39.5188C97.0566 40.3169 98.2192 40.716 99.7262 40.716C101.255 40.716 102.859 40.4571 104.538 39.9394V45.084C102.708 45.8605 100.501 46.2488 97.9178 46.2488C91.4376 46.2488 88.1974 42.8299 88.1974 35.992V18.6494H83.8055V15.6079L88.5204 13.1165L90.8455 6.28947H95.0437V13.4724H104.215V18.6494H95.0437V35.895Z"
    />
    <path
        d="M129.168 12.89C130.546 12.89 131.676 12.9871 132.559 13.1812L131.913 19.5553C130.901 19.318 129.89 19.1994 128.878 19.1994C126.165 19.1994 123.948 20.0946 122.225 21.8849C120.546 23.6753 119.706 25.9941 119.706 28.8414V45.6664H112.86V13.4724H118.221L119.125 19.1347H119.448C120.546 17.1933 121.945 15.6726 123.646 14.5725C125.369 13.4509 127.209 12.89 129.168 12.89Z"
    />
    <path d="M147.323 13.4724V45.6664H140.477V13.4724H147.323Z"/>
    <path
        d="M193.023 45.6664H185.337L181.204 30.6533C180.73 29.2297 179.815 25.5303 178.459 19.5553H178.201C177.017 25.0558 176.123 28.7659 175.52 30.6857L171.258 45.6664H163.701L154.691 13.4724H161.666L165.768 29.3268C166.672 33.1447 167.328 36.5097 167.738 39.4217H167.899C168.093 38.0197 168.383 36.4127 168.771 34.6007C169.18 32.7888 169.535 31.3867 169.837 30.3945L174.713 13.4724H182.205L186.952 30.3945C187.254 31.3867 187.609 32.8427 188.018 34.7625C188.448 36.6607 188.718 38.1922 188.825 39.357H189.051C189.331 36.9843 190.009 33.6409 191.086 29.3268L195.219 13.4724H202.098L193.023 45.6664Z"
    />
    <path
        d="M234.553 45.6664H229.677L228.321 41.169H228.062C226.512 43.1319 224.951 44.4692 223.38 45.1811C221.83 45.8929 219.817 46.2488 217.341 46.2488C214.176 46.2488 211.711 45.3968 209.946 43.6927C208.18 41.9671 207.298 39.4972 207.298 36.2832C207.298 29.8337 212.282 26.4579 222.25 26.1559L227.772 25.9941V24.2793C227.772 22.2085 227.287 20.6662 226.319 19.6524C225.371 18.6386 223.897 18.1317 221.894 18.1317C219.332 18.1317 216.297 18.9406 212.788 20.5583L210.592 15.6726C214.165 13.8176 218.019 12.89 222.153 12.89C226.308 12.89 229.408 13.796 231.453 15.6079C233.52 17.3983 234.553 20.1916 234.553 23.9881V45.6664ZM214.402 36.5097C214.402 37.955 214.833 39.0658 215.694 39.8424C216.555 40.6189 217.825 41.0072 219.505 41.0072C221.98 41.0072 223.972 40.3169 225.479 38.9364C226.986 37.5559 227.739 35.6038 227.739 33.08V30.2974L223.606 30.4592C220.377 30.5886 218.03 31.1387 216.566 32.1094C215.123 33.0585 214.402 34.5252 214.402 36.5097Z"
    />
    <path
        d="M246.745 60C245.238 60 242.353 60 242.353 60V54.4348C242.353 54.4348 244.582 54.4348 245.873 54.4348C249.189 54.4348 251.503 52.5258 252.817 48.7078L254.011 45.6664L241.094 13.4724H248.522L255.077 31.7211C256.067 34.3095 256.724 36.7578 257.047 39.0658H257.273C257.424 37.9873 257.79 36.5529 258.371 34.7625C258.952 32.9506 261.374 25.8539 265.637 13.4724H273L259.243 49.9374C256.746 56.6458 252.58 60 246.745 60Z"
    />
</svg>
